<svg xmlns="http://www.w3.org/2000/svg" width="1200px" height="780px" xmlns:xlink="http://www.w3.org/1999/xlink" viewBox="-0.1824817518246924 0 1200.3649635036493 780" preserveAspectRatio="xMidYMid meet"><rect id="svgEditorBackground" x="0" y="0" width="1380" height="820" style="fill:none; stroke: none;"/><defs id="svgEditorDefs"><linearGradient gradientUnits="objectBoundingBox" id="lgrd2-fire" spreadMethod="pad" x1="0%" x2="100%" y1="0%" y2="0%"><stop offset="0%" style="stop-color:rgb(255,255,0);stop-opacity:1"/><stop offset="100%" style="stop-color:rgb(255,0,0);stop-opacity:1"/></linearGradient><linearGradient gradientUnits="objectBoundingBox" id="lgrd2-black-white" spreadMethod="pad" x1="0%" x2="100%" y1="0%" y2="100%"><stop offset="0%" stop-color="black"/><stop offset="100%" stop-color="white"/></linearGradient><linearGradient gradientUnits="objectBoundingBox" id="lgrd2-peachpuff-sienna-v" spreadMethod="pad" x1="0%" x2="0%" y1="0%" y2="100%"><stop offset="0%" style="stop-color:peachpuff;  stop-opacity:0.84;"/><stop offset="100%" style="stop-color:sienna;  stop-opacity:1"/></linearGradient><linearGradient gradientUnits="objectBoundingBox" id="lgrd2-peachpuff-sienna-h" spreadMethod="pad" x1="0%" x2="100%" y1="0%" y2="0%"><stop offset="0%" style="stop-color:peachpuff;  stop-opacity:1;"/><stop offset="100%" style="stop-color:sienna;  stop-opacity:1"/></linearGradient><linearGradient gradientUnits="objectBoundingBox" id="lrgd2-e1" spreadMethod="pad" x1="0%" x2="100%" y1="0%" y2="0%"><stop offset="0%" stop-color="#FF3748"/><stop offset="100%" stop-color="#E8E5E7"/></linearGradient><linearGradient gradientUnits="objectBoundingBox" id="lgrd2-b" spreadMethod="pad" x1="0" x2="100%" y1="0" y2="0"><stop offset="0%" stop-color="#FAC4ED"/><stop offset="100%" stop-color="#ED6E46"/></linearGradient><linearGradient gradientUnits="objectBoundingBox" id="lrgd2-e1-50-reflect" spreadMethod="reflect" x1="0%" x2="50%" y1="0%" y2="0%"><stop offset="0%" stop-color="lightblue"/><stop offset="100%" stop-color="#ef5b2b"/></linearGradient><radialGradient cx="50.1%" cy="48.8%" fx="30%" fy="30%" gradientUnits="objectBoundingBox" id="rgrd3-b" r="50%"><stop offset="0%" stop-color="#F9C7C7"/><stop offset="50%" stop-color="#F0AAAA"/><stop offset="100%" stop-color="#F98278"/></radialGradient></defs><ellipse id="e12_ellipse" cx="597.083" cy="356.083" style="fill:url(#rgrd3-b);stroke:black;stroke-width:1px;" rx="607" ry="250" transform="matrix(0.972061, -0.00645816, 0.00645816, 0.972061, 9.53162, 44.4901)"/><text style="fill: black; font-size:48px;font-family:Latha;" x="363.814" y="155.798" id="e13_texte" transform="matrix(9.20179, 0, 0, 9.20179, -3080.1, -1116.86)">R</text><text style="fill:black;font-family:Latha;font-size:35px;" x="629.259" y="234.804" id="e15_texte" transform="matrix(3.65856, 0, 0, 3.65856, -1813.35, -624.318)">icardo</text><text style="fill: black; font-size:48px;font-family:Latha;" x="406.465" y="190.262" id="e20_texte" transform="matrix(9.45504, -0.124867, 0.124867, 9.45504, -3508.75, -1191.16)">O</text><text style="fill: black; font-size:48px;font-family:Latha;" x="404.411" y="191.059" id="e3_texte" transform="matrix(9.8434, 0, 0, 9.8434, -3532.02, -1122.89)">C</text><text style="fill:black;font-family:Latha;font-size:35px;" x="678.229" y="279.182" id="e4_texte" transform="matrix(4.78901, 0, 0, 4.78901, -2568.57, -914.222)">rozco</text><text style="fill:black;font-family:Latha;font-size:35px;" x="702.97" y="342.971" id="e11_texte" transform="matrix(3.65856, 0, 0, 3.65856, -1813.35, -624.318)">alle</text></svg>